<svg width="15" height="15" viewBox="0 0 15 15" fill="none" xmlns="http://www.w3.org/2000/svg">
<path d="M7.5 0C3.36675 0 0 3.36675 0 7.5C0 11.6333 3.36675 15 7.5 15C11.6333 15 15 11.6333 15 7.5C15 3.36675 11.6333 0 7.5 0ZM7.5 1.5C10.8226 1.5 13.5 4.17741 13.5 7.5C13.5 10.8226 10.8226 13.5 7.5 13.5C4.17741 13.5 1.5 10.8226 1.5 7.5C1.5 4.17741 4.17741 1.5 7.5 1.5ZM5.03027 3.96973L3.96973 5.03027L6.43945 7.5L3.96973 9.96973L5.03027 11.0303L7.5 8.56055L9.96973 11.0303L11.0303 9.96973L8.56055 7.5L11.0303 5.03027L9.96973 3.96973L7.5 6.43945L5.03027 3.96973Z" fill="black" fill-opacity="0.5"/>
</svg>
