<svg width="15" height="14" viewBox="0 0 15 14" fill="none" xmlns="http://www.w3.org/2000/svg">
<path d="M6.93631 5.33169C7.68297 5.36669 7.87547 6.00252 7.88714 6.30002H8.93131C8.88464 5.14502 8.06214 4.43919 6.91881 4.43919C5.62964 4.43919 4.67297 5.25002 4.67297 7.08169C4.67297 8.21335 5.21547 9.55502 6.91297 9.55502C8.20797 9.55502 8.90214 8.59252 8.91964 7.83419H7.87547C7.85797 8.17835 7.61297 8.63919 6.92464 8.67419C6.16047 8.65085 5.83964 8.05585 5.83964 7.08169C5.83964 5.39585 6.58631 5.34335 6.93631 5.33169ZM7.00631 1.16669C3.78631 1.16669 1.17297 3.78002 1.17297 7.00002C1.17297 10.22 3.78631 12.8334 7.00631 12.8334C10.2263 12.8334 12.8396 10.22 12.8396 7.00002C12.8396 3.78002 10.2263 1.16669 7.00631 1.16669ZM7.00631 11.6667C4.43381 11.6667 2.33964 9.57252 2.33964 7.00002C2.33964 4.42752 4.43381 2.33335 7.00631 2.33335C9.57881 2.33335 11.673 4.42752 11.673 7.00002C11.673 9.57252 9.57881 11.6667 7.00631 11.6667Z" fill="#F8F8F8"/>
</svg>
