<svg width="17" height="16" viewBox="0 0 17 16" fill="none" xmlns="http://www.w3.org/2000/svg">
<path d="M12.2563 0H3.75635C1.68528 0 0.00634766 1.67893 0.00634766 3.75V12.25C0.00634766 14.3211 1.68528 16 3.75635 16H12.2563C14.3274 16 16.0063 14.3211 16.0063 12.25V3.75C16.0063 1.67893 14.3274 0 12.2563 0Z" fill="url(#paint0_radial_13_276)"/>
<path d="M12.2563 0H3.75635C1.68528 0 0.00634766 1.67893 0.00634766 3.75V12.25C0.00634766 14.3211 1.68528 16 3.75635 16H12.2563C14.3274 16 16.0063 14.3211 16.0063 12.25V3.75C16.0063 1.67893 14.3274 0 12.2563 0Z" fill="url(#paint1_radial_13_276)"/>
<path d="M8.00691 1.75C6.30954 1.75 6.09647 1.75744 5.42985 1.78775C4.76447 1.81825 4.31029 1.92356 3.91291 2.07812C3.50179 2.23775 3.1531 2.45131 2.80572 2.79881C2.45804 3.14625 2.24447 3.49494 2.08435 3.90587C1.92935 4.30337 1.82391 4.75775 1.79397 5.42281C1.76416 6.0895 1.75635 6.30263 1.75635 8.00006C1.75635 9.6975 1.76385 9.90987 1.7941 10.5765C1.82472 11.2419 1.93004 11.6961 2.08447 12.0934C2.24422 12.5046 2.45779 12.8532 2.80529 13.2006C3.1526 13.5483 3.50129 13.7624 3.9121 13.922C4.30979 14.0766 4.76403 14.1819 5.42929 14.2124C6.09597 14.2427 6.30885 14.2501 8.00616 14.2501C9.70372 14.2501 9.9161 14.2427 10.5827 14.2124C11.2481 14.1819 11.7028 14.0766 12.1005 13.922C12.5114 13.7624 12.8596 13.5483 13.2068 13.2006C13.5545 12.8532 13.768 12.5046 13.9282 12.0936C14.0818 11.6961 14.1873 11.2417 14.2186 10.5766C14.2485 9.91 14.2563 9.6975 14.2563 8.00006C14.2563 6.30263 14.2485 6.08962 14.2186 5.42294C14.1873 4.75756 14.0818 4.30344 13.9282 3.90606C13.768 3.49494 13.5545 3.14625 13.2068 2.79881C12.8592 2.45119 12.5115 2.23762 12.1001 2.07819C11.7017 1.92356 11.2472 1.81819 10.5818 1.78775C9.91516 1.75744 9.70291 1.75 8.00497 1.75H8.00691ZM7.44622 2.87631C7.61266 2.87606 7.79835 2.87631 8.00691 2.87631C9.67572 2.87631 9.87347 2.88231 10.5325 2.91225C11.1418 2.94012 11.4726 3.04194 11.6929 3.1275C11.9846 3.24075 12.1925 3.37619 12.4112 3.595C12.6299 3.81375 12.7653 4.02206 12.8788 4.31375C12.9644 4.53375 13.0663 4.8645 13.0941 5.47387C13.124 6.13275 13.1305 6.33062 13.1305 7.99862C13.1305 9.66662 13.124 9.86456 13.0941 10.5234C13.0662 11.1327 12.9644 11.4635 12.8788 11.6836C12.7656 11.9752 12.6299 12.1829 12.4112 12.4016C12.1924 12.6203 11.9847 12.7557 11.6929 12.869C11.4728 12.9549 11.1418 13.0565 10.5325 13.0844C9.8736 13.1143 9.67572 13.1208 8.00691 13.1208C6.33804 13.1208 6.14022 13.1143 5.48141 13.0844C4.87204 13.0562 4.54129 12.9544 4.32079 12.8689C4.02916 12.7556 3.82079 12.6202 3.60204 12.4014C3.38329 12.1827 3.24791 11.9749 3.13435 11.6831C3.04879 11.463 2.94685 11.1322 2.9191 10.5229C2.88916 9.864 2.88316 9.66612 2.88316 7.99706C2.88316 6.32806 2.88916 6.13119 2.9191 5.47231C2.94697 4.86294 3.04879 4.53219 3.13435 4.31187C3.24766 4.02019 3.38329 3.81187 3.6021 3.59312C3.82085 3.37437 4.02916 3.23894 4.32085 3.12544C4.54116 3.0395 4.87204 2.93794 5.48141 2.90994C6.05797 2.88387 6.28141 2.87606 7.44622 2.87475V2.87631ZM11.3432 3.91406C10.9291 3.91406 10.5932 4.24969 10.5932 4.66381C10.5932 5.07787 10.9291 5.41381 11.3432 5.41381C11.7572 5.41381 12.0932 5.07787 12.0932 4.66381C12.0932 4.24975 11.7572 3.91381 11.3432 3.91381V3.91406ZM8.00691 4.79037C6.23441 4.79037 4.79729 6.2275 4.79729 8.00006C4.79729 9.77262 6.23441 11.2091 8.00691 11.2091C9.77947 11.2091 11.2161 9.77262 11.2161 8.00006C11.2161 6.22756 9.77935 4.79037 8.00679 4.79037H8.00691ZM8.00691 5.91669C9.15747 5.91669 10.0903 6.84938 10.0903 8.00006C10.0903 9.15063 9.15747 10.0834 8.00691 10.0834C6.85629 10.0834 5.9236 9.15063 5.9236 8.00006C5.9236 6.84938 6.85629 5.91669 8.00691 5.91669Z" fill="white"/>
<defs>
<radialGradient id="paint0_radial_13_276" cx="0" cy="0" r="1" gradientUnits="userSpaceOnUse" gradientTransform="translate(4.25635 17.2323) rotate(-90) scale(15.8572 14.7484)">
<stop stop-color="#FFDD55"/>
<stop offset="0.1" stop-color="#FFDD55"/>
<stop offset="0.5" stop-color="#FF543E"/>
<stop offset="1" stop-color="#C837AB"/>
</radialGradient>
<radialGradient id="paint1_radial_13_276" cx="0" cy="0" r="1" gradientUnits="userSpaceOnUse" gradientTransform="translate(-2.67371 1.15256) rotate(78.681) scale(7.08825 29.218)">
<stop stop-color="#3771C8"/>
<stop offset="0.128" stop-color="#3771C8"/>
<stop offset="1" stop-color="#6600FF" stop-opacity="0"/>
</radialGradient>
</defs>
</svg>
