<svg width="17" height="16" viewBox="0 0 17 16" fill="none" xmlns="http://www.w3.org/2000/svg">
<g id="Group">
<path id="Vector" d="M12.2563 0H3.75635C1.68528 0 0.00634766 1.67893 0.00634766 3.75V12.25C0.00634766 14.3211 1.68528 16 3.75635 16H12.2563C14.3274 16 16.0063 14.3211 16.0063 12.25V3.75C16.0063 1.67893 14.3274 0 12.2563 0Z" fill="white"/>
<path id="Vector_2" d="M12.2563 0H3.75635C1.68528 0 0.00634766 1.67893 0.00634766 3.75V12.25C0.00634766 14.3211 1.68528 16 3.75635 16H12.2563C14.3274 16 16.0063 14.3211 16.0063 12.25V3.75C16.0063 1.67893 14.3274 0 12.2563 0Z" fill="#0A66C2"/>
<path id="Vector_3" d="M11.551 13.6053H13.3804C13.4467 13.6053 13.5103 13.579 13.5572 13.5321C13.604 13.4852 13.6304 13.4217 13.6304 13.3554L13.6313 9.49025C13.6313 7.47006 13.196 5.91725 10.8352 5.91725C9.93778 5.88388 9.09147 6.3465 8.63478 7.119C8.63255 7.12275 8.62915 7.12567 8.62511 7.12731C8.62106 7.12895 8.61659 7.12922 8.61237 7.12808C8.60816 7.12694 8.60443 7.12445 8.60176 7.12099C8.5991 7.11754 8.59763 7.1133 8.5976 7.10894V6.35375C8.5976 6.28745 8.57126 6.22386 8.52437 6.17697C8.47749 6.13009 8.4139 6.10375 8.3476 6.10375H6.61154C6.54523 6.10375 6.48164 6.13009 6.43476 6.17697C6.38787 6.22386 6.36154 6.28745 6.36154 6.35375V13.355C6.36154 13.4213 6.38787 13.4849 6.43476 13.5318C6.48164 13.5787 6.54523 13.605 6.61154 13.605H8.44079C8.50709 13.605 8.57068 13.5787 8.61756 13.5318C8.66445 13.4849 8.69079 13.4213 8.69079 13.355V9.89419C8.69079 8.91563 8.87641 7.96794 10.0896 7.96794C11.2855 7.96794 11.301 9.08769 11.301 9.95756V13.3553C11.301 13.4216 11.3274 13.4852 11.3743 13.5321C11.4211 13.579 11.4847 13.6053 11.551 13.6053ZM2.38135 3.72669C2.38135 4.46825 2.99179 5.07837 3.73335 5.07837C4.47472 5.07831 5.08478 4.46781 5.08478 3.72644C5.08466 2.98506 4.47453 2.375 3.7331 2.375C2.99147 2.375 2.38135 2.98519 2.38135 3.72669ZM2.81629 13.6053H4.64797C4.71428 13.6053 4.77787 13.579 4.82475 13.5321C4.87163 13.4852 4.89797 13.4216 4.89797 13.3553V6.35375C4.89797 6.28745 4.87163 6.22386 4.82475 6.17697C4.77787 6.13009 4.71428 6.10375 4.64797 6.10375H2.81629C2.74998 6.10375 2.68639 6.13009 2.63951 6.17697C2.59262 6.22386 2.56629 6.28745 2.56629 6.35375V13.3553C2.56629 13.4216 2.59262 13.4852 2.63951 13.5321C2.68639 13.579 2.74998 13.6053 2.81629 13.6053Z" fill="white"/>
</g>
</svg>
