<svg width="17" height="16" viewBox="0 0 17 16" fill="none" xmlns="http://www.w3.org/2000/svg">
<path d="M12.2563 0H3.75635C1.68528 0 0.00634766 1.67893 0.00634766 3.75V12.25C0.00634766 14.3211 1.68528 16 3.75635 16H12.2563C14.3274 16 16.0063 14.3211 16.0063 12.25V3.75C16.0063 1.67893 14.3274 0 12.2563 0Z" fill="white"/>
<path d="M12.2563 0H3.75635C1.68528 0 0.00634766 1.67893 0.00634766 3.75V12.25C0.00634766 14.3211 1.68528 16 3.75635 16H12.2563C14.3274 16 16.0063 14.3211 16.0063 12.25V3.75C16.0063 1.67893 14.3274 0 12.2563 0Z" fill="#1D9BF0"/>
<path d="M12.4796 5.71318C12.4865 5.81237 12.4865 5.91156 12.4865 6.01168C12.4865 9.0615 10.1647 12.5789 5.91929 12.5789V12.577C4.66511 12.5788 3.43691 12.2196 2.38135 11.5423C2.56372 11.5642 2.74697 11.5752 2.93072 11.5756C3.9702 11.5764 4.97977 11.2278 5.79722 10.5857C5.3156 10.5766 4.84885 10.4172 4.46225 10.1298C4.07564 9.84244 3.7885 9.44144 3.64097 8.98287C3.98677 9.04955 4.34326 9.03595 4.68297 8.94312C3.60622 8.72556 2.83154 7.7795 2.83154 6.68075V6.6515C3.15253 6.83029 3.51177 6.92936 3.87904 6.94037C2.86491 6.26256 2.55229 4.91337 3.16466 3.8585C3.74412 4.57156 4.46709 5.15475 5.28663 5.57019C6.10616 5.98562 7.00393 6.22401 7.9216 6.26987C7.8301 5.87602 7.84362 5.46505 7.96079 5.07806C8.07796 4.69107 8.29468 4.34163 8.58928 4.06468C9.51891 3.19081 10.981 3.23562 11.8548 4.16475C12.3717 4.0627 12.8674 3.87321 13.3205 3.60443C13.1482 4.13885 12.7877 4.59248 12.3059 4.88093C12.7635 4.82703 13.2103 4.70455 13.6313 4.51762C13.3216 4.9815 12.9316 5.38632 12.4796 5.71318Z" fill="white"/>
</svg>
