<svg width="24" height="18" viewBox="0 0 24 18" fill="none" xmlns="http://www.w3.org/2000/svg">
<path d="M1.33333 17.6147H22.6667C23.4 17.6147 24 16.9541 24 16.1468C24 15.3394 23.4 14.6789 22.6667 14.6789H1.33333C0.6 14.6789 0 15.3394 0 16.1468C0 16.9541 0.6 17.6147 1.33333 17.6147ZM1.33333 10.2752H22.6667C23.4 10.2752 24 9.61468 24 8.80734C24 8 23.4 7.33945 22.6667 7.33945H1.33333C0.6 7.33945 0 8 0 8.80734C0 9.61468 0.6 10.2752 1.33333 10.2752ZM0 1.46789C0 2.27523 0.6 2.93578 1.33333 2.93578H22.6667C23.4 2.93578 24 2.27523 24 1.46789C24 0.66055 23.4 0 22.6667 0H1.33333C0.6 0 0 0.66055 0 1.46789Z" fill="#00C6CA"/>
</svg>
