<svg width="32" height="32" viewBox="0 0 32 32" fill="none" xmlns="http://www.w3.org/2000/svg">
<path d="M17.6 14.4H24V17.6H17.6V24H14.4V17.6H8V14.4H14.4V8H17.6V14.4ZM16 32C11.7565 32 7.68687 30.3143 4.68629 27.3137C1.68571 24.3131 0 20.2435 0 16C0 11.7565 1.68571 7.68687 4.68629 4.68629C7.68687 1.68571 11.7565 0 16 0C20.2435 0 24.3131 1.68571 27.3137 4.68629C30.3143 7.68687 32 11.7565 32 16C32 20.2435 30.3143 24.3131 27.3137 27.3137C24.3131 30.3143 20.2435 32 16 32ZM16 28.8C19.3948 28.8 22.6505 27.4514 25.051 25.051C27.4514 22.6505 28.8 19.3948 28.8 16C28.8 12.6052 27.4514 9.3495 25.051 6.94903C22.6505 4.54857 19.3948 3.2 16 3.2C12.6052 3.2 9.3495 4.54857 6.94903 6.94903C4.54857 9.3495 3.2 12.6052 3.2 16C3.2 19.3948 4.54857 22.6505 6.94903 25.051C9.3495 27.4514 12.6052 28.8 16 28.8Z" fill="#00C6CA"/>
</svg>
